<svg width="1080" height="1550" viewBox="0 0 1080 1550" fill="none" xmlns="http://www.w3.org/2000/svg">
  <rect width="1080" height="1550" fill="#FFD700"/>
  
  <text x="50%" y="120" text-anchor="middle" fill="#E30613" style="font-family:Arial, sans-serif; font-weight:900; font-size:85px;">ESCALA DE TRABALHO</text>
  <text x="50%" y="210" text-anchor="middle" fill="#1D2B5B" style="font-family:Arial, sans-serif; font-weight:900; font-size:75px;">PADARIA - NASSER</text>
  <text x="50%" y="300" text-anchor="middle" fill="#1D2B5B" style="font-family:Arial, sans-serif; font-weight:900; font-size:70px;">15/02/2026</text>

  <rect x="50" y="360" width="980" height="850" rx="40" fill="white" stroke="#1D2B5B" stroke-width="8"/>
  
  <g style="font-family:Arial, sans-serif; font-weight:bold; font-size:38px; fill:#1D2B5B;">
    <text x="100" y="420" fill="#E30613">FUNCIONÁRIO</text>
    <line x1="370" y1="360" x2="370" y2="1210" stroke="#1D2B5B" stroke-width="4"/>
    <text x="450" y="420" fill="#E30613">HORÁRIO 1</text>
    <line x1="720" y1="360" x2="720" y2="1210" stroke="#1D2B5B" stroke-width="4"/>
    <text x="800" y="420" fill="#E30613">HORÁRIO 2</text>
    
    <line x1="50" y1="450" x2="1030" y2="450" stroke="#1D2B5B" stroke-width="4"/>

    <text x="100" y="520">Maria Aux</text>
    <text x="430" y="520">05:00 - 11:00</text>
    <text x="780" y="520">13:00 - 16:00</text>
    <line x1="50" y1="560" x2="1030" y2="560" stroke="#E30613" stroke-width="2"/>
  </g>

  <path d="M0 1350 C 300 1300, 700 1450, 1080 1350 V 1550 H 0 Z" fill="#E30613"/>
  <path d="M0 1380 C 300 1330, 700 1480, 1080 1380 V 1550 H 0 Z" fill="#1D2B5B" opacity="0.3"/>
  <!-- Logo Mister Compras Júnior é injetado via overlay no app -->
</svg>
